<svg width="50" height="50" xmlns="http://www.w3.org/2000/svg" viewBox="140 140 1000.02 1000.01"><path fill="#16af39" d="m206.92 389.96c43.9-75.87 107.17-139.14 183.04-183.04l250.04 433.09-433.08-250.04z"></path><path fill="#0092cf" d="m140,640c0-91.09,24.36-176.49,66.92-250.04l433.08,250.04H140Z"></path><path fill="#275cad" d="m206.92 890.04c-42.56-73.55-66.92-158.95-66.92-250.04h500l-433.08 250.04z"></path><path fill="#4c2a93" d="m389.96 1073.1c-75.87-43.9-139.14-107.17-183.04-183.04l433.08-250.04-250.04 433.08z"></path><path fill="#8f3396" d="m640 1140c-91.09 0-176.49-24.36-250.04-66.92l250.04-433.08v500z"></path><path fill="#c2174b" d="m890.04 1073.1c-73.55 42.56-158.95 66.91-250.04 66.91v-500s250.04 433.09 250.04 433.09z"></path><path fill="#ff2f1d" d="m890.04 1073.1c75.88-43.9 139.15-107.17 183.05-183.05l-433.08-250.04 250.04 433.09z"></path><path fill="#ff5417" d="m1073.1 890.04c42.56-73.55 66.92-158.95 66.92-250.04h-500l433.08 250.04z"></path><path fill="#ff9a00" d="m1140 640c0-91.09-24.36-176.49-66.92-250.04l-433.08 250.04h500z"></path><path fill="#ffbc00" d="m1073.1 389.96c-43.9-75.87-107.17-139.14-183.04-183.04l-250.04 433.08 433.08-250.04z"></path><path fill="#fbec0d" d="m890.04 206.92c-73.55-42.56-158.95-66.92-250.04-66.92v500s250.04-433.08 250.04-433.08z"></path><path fill="#c8dd14" d="m389.96 206.91c73.55-42.56 158.95-66.91 250.04-66.91v500s-250.04-433.09-250.04-433.09z"></path></svg>
